<?xml version="1.0" encoding="UTF-8"?>
<!DOCTYPE svg PUBLIC "-//W3C//DTD SVG 1.1//EN" "http://www.w3.org/Graphics/SVG/1.1/DTD/svg11.dtd">
<svg xmlns="http://www.w3.org/2000/svg" version="1.1" width="2560px" height="1707px" style="shape-rendering:geometricPrecision; text-rendering:geometricPrecision; image-rendering:optimizeQuality; fill-rule:evenodd; clip-rule:evenodd" xmlns:xlink="http://www.w3.org/1999/xlink">
<g><path style="opacity:1" fill="#0068ac" d="M -0.5,-0.5 C 852.833,-0.5 1706.17,-0.5 2559.5,-0.5C 2559.5,568.5 2559.5,1137.5 2559.5,1706.5C 1706.17,1706.5 852.833,1706.5 -0.5,1706.5C -0.5,1137.5 -0.5,568.5 -0.5,-0.5 Z"/></g>
<g><path style="opacity:1" fill="#fefefe" d="M 1250.5,188.5 C 1451.46,183.946 1621.96,252.946 1762,395.5C 1899.29,545.696 1958.62,722.696 1940,926.5C 1915.79,1112.82 1830.63,1263.98 1684.5,1380C 1533.92,1491.81 1365.25,1535.15 1178.5,1510C 986.025,1476.42 834.858,1379.59 725,1219.5C 634.901,1080.03 600.234,927.701 621,762.5C 649.431,576.925 738.264,428.091 887.5,316C 995.856,238.045 1116.86,195.545 1250.5,188.5 Z"/></g>
<g><path style="opacity:1" fill="#0368ac" d="M 1278.5,312.5 C 1313.08,345.582 1347.25,379.248 1381,413.5C 1381.5,400.171 1381.67,386.837 1381.5,373.5C 1401.17,373.5 1420.83,373.5 1440.5,373.5C 1440.5,391.5 1440.5,409.5 1440.5,427.5C 1456.83,427.5 1473.17,427.5 1489.5,427.5C 1489.5,409.5 1489.5,391.5 1489.5,373.5C 1509.83,373.5 1530.17,373.5 1550.5,373.5C 1550.33,443.501 1550.5,513.501 1551,583.5C 1600.83,633.333 1650.67,683.167 1700.5,733C 1650.67,782.833 1600.83,832.667 1551,882.5C 1550.67,969.167 1550.33,1055.83 1550,1142.5C 1505.63,1097.79 1460.96,1053.46 1416,1009.5C 1370.36,1054.31 1324.86,1099.31 1279.5,1144.5C 1234.14,1099.31 1188.64,1054.31 1143,1009.5C 1096.71,1054.79 1050.71,1100.46 1005,1146.5C 1004.67,1057.17 1004.33,967.833 1004,878.5C 955.5,830 907,781.5 858.5,733C 907,684.5 955.5,636 1004,587.5C 1004.5,516.167 1004.67,444.834 1004.5,373.5C 1025.17,373.5 1045.83,373.5 1066.5,373.5C 1066.5,391.5 1066.5,409.5 1066.5,427.5C 1082.83,427.5 1099.17,427.5 1115.5,427.5C 1115.5,409.5 1115.5,391.5 1115.5,373.5C 1135.17,373.5 1154.83,373.5 1174.5,373.5C 1174.33,387.837 1174.5,402.171 1175,416.5C 1209.7,381.965 1244.2,347.299 1278.5,312.5 Z"/></g>
<g><path style="opacity:1" fill="#fdfdfe" d="M 1278.5,338.5 C 1279.24,338.369 1279.91,338.536 1280.5,339C 1411.87,470.04 1542.87,601.373 1673.5,733C 1542.69,864.974 1411.36,996.474 1279.5,1127.5C 1147.64,996.474 1016.31,864.974 885.5,733C 1016.33,601.338 1147.33,469.838 1278.5,338.5 Z"/></g>
<g><path style="opacity:1" fill="#0268ac" d="M 1454.5,827.5 C 1453.57,826.432 1453.23,825.099 1453.5,823.5C 1455.99,793.941 1454.49,764.607 1449,735.5C 1437.72,706.227 1418.56,683.727 1391.5,668C 1383.11,663.139 1374.45,658.806 1365.5,655C 1330.64,643.203 1295.64,631.869 1260.5,621C 1245.71,614.859 1233.21,605.693 1223,593.5C 1212.05,578.227 1210.71,562.227 1219,545.5C 1226.19,536.787 1234.69,535.287 1244.5,541C 1247.5,543.333 1250.5,545.667 1253.5,548C 1257.95,548.86 1261.45,547.36 1264,543.5C 1266.29,540.165 1265.79,537.332 1262.5,535C 1256.08,533.866 1250.58,531.032 1246,526.5C 1244.78,517.051 1248.95,512.885 1258.5,514C 1263.15,517.304 1267.81,520.637 1272.5,524C 1276.78,524.965 1280.78,524.298 1284.5,522C 1288.94,518.751 1291.94,514.585 1293.5,509.5C 1293.38,507.209 1292.54,505.209 1291,503.5C 1283.5,496 1276,488.5 1268.5,481C 1257.46,473.096 1245.12,468.763 1231.5,468C 1230.66,466.989 1230.33,465.822 1230.5,464.5C 1333.16,449.88 1419,480.88 1488,557.5C 1548.85,633.722 1566.18,719.056 1540,813.5C 1515.94,886.718 1469.77,941.051 1401.5,976.5C 1421.99,962.207 1440.49,944.873 1457,924.5C 1476.66,898.194 1492.99,869.861 1506,839.5C 1511.39,825.259 1514.89,810.592 1516.5,795.5C 1517.24,779.398 1509.9,773.565 1494.5,778C 1485.38,783.454 1477.88,790.62 1472,799.5C 1465.91,808.693 1460.07,818.027 1454.5,827.5 Z"/></g>
<g><path style="opacity:1" fill="#0368ac" d="M 1197.5,472.5 C 1199.17,472.5 1200.83,472.5 1202.5,472.5C 1202.67,473.822 1202.34,474.989 1201.5,476C 1177.17,492.095 1156.34,511.929 1139,535.5C 1129.9,549.117 1122.9,563.784 1118,579.5C 1113.9,598.071 1110.24,616.737 1107,635.5C 1098.78,670.056 1077.28,690.556 1042.5,697C 1031.54,698.285 1020.54,698.785 1009.5,698.5C 1023.19,607.898 1069.52,539.732 1148.5,494C 1164.45,485.683 1180.79,478.516 1197.5,472.5 Z"/></g>
<g><path style="opacity:1" fill="#0368ac" d="M 1252.5,933.5 C 1292.83,934.167 1333.17,934.833 1373.5,935.5C 1364.05,945.091 1353.05,952.591 1340.5,958C 1308.19,970.599 1275.86,970.599 1243.5,958C 1212.24,947.131 1185.41,929.631 1163,905.5C 1147.51,887.209 1141.51,866.209 1145,842.5C 1149.84,819.972 1163.68,809.138 1186.5,810C 1208.6,818.963 1214.1,834.13 1203,855.5C 1194.79,864.101 1195.96,865.601 1206.5,860C 1229.88,844.396 1238.04,822.896 1231,795.5C 1219.86,770.997 1200.69,758.664 1173.5,758.5C 1147.95,761.21 1128.45,773.544 1115,795.5C 1101.45,821.703 1098.78,849.036 1107,877.5C 1115.74,905.827 1131.57,929.327 1154.5,948C 1187.63,974.228 1224.96,991.894 1266.5,1001C 1274.14,1002.16 1281.8,1003 1289.5,1003.5C 1280.68,1004.49 1271.68,1004.83 1262.5,1004.5C 1182.31,998.327 1116.81,964.327 1066,902.5C 1024.83,849.319 1005.5,788.985 1008,721.5C 1025.29,732.202 1044.13,738.369 1064.5,740C 1091.55,741.719 1117.88,738.386 1143.5,730C 1131.79,710.337 1128.95,689.504 1135,667.5C 1144.94,645.257 1162.1,632.423 1186.5,629C 1213.15,624.586 1233.98,633.419 1249,655.5C 1257.54,671.893 1255.71,687.059 1243.5,701C 1241.17,702.667 1238.83,704.333 1236.5,706C 1233.91,707.314 1231.24,707.981 1228.5,708C 1237.99,678.809 1227.32,665.476 1196.5,668C 1177.68,675.458 1170.18,689.291 1174,709.5C 1180.29,731.117 1194.45,744.617 1216.5,750C 1225.87,750.776 1235.21,750.442 1244.5,749C 1254.83,746 1265.17,743 1275.5,740C 1299.56,734.453 1323.23,735.786 1346.5,744C 1385.26,763.036 1398.1,793.203 1385,834.5C 1381.61,843.61 1376.95,851.943 1371,859.5C 1372.52,833.037 1363.69,810.87 1344.5,793C 1323.2,779.648 1304.03,782.148 1287,800.5C 1284.2,804.443 1282.2,808.777 1281,813.5C 1279.23,828.187 1281.56,842.187 1288,855.5C 1298.8,875.974 1312.97,893.807 1330.5,909C 1311.51,908.617 1292.51,908.617 1273.5,909C 1259.6,911.319 1252.6,919.485 1252.5,933.5 Z"/></g>
<g><path style="opacity:1" fill="#096aad" d="M 1317.5,655.5 C 1326.92,654.647 1335.92,656.147 1344.5,660C 1353.16,669.103 1351.49,676.103 1339.5,681C 1327.68,685.109 1316.35,684.109 1305.5,678C 1298.58,671.607 1298.91,665.607 1306.5,660C 1310.05,657.879 1313.72,656.379 1317.5,655.5 Z"/></g>
<g><path style="opacity:1" fill="#126cae" d="M 1276.5,675.5 C 1283,674.617 1289,675.784 1294.5,679C 1297.72,682.112 1298.22,685.612 1296,689.5C 1287.26,697.432 1278.59,697.432 1270,689.5C 1267.85,685.913 1268.18,682.58 1271,679.5C 1273.02,678.303 1274.85,676.97 1276.5,675.5 Z"/></g>
<g><path style="opacity:1" fill="#0d6bad" d="M 1327.5,692.5 C 1332.95,691.968 1337.95,693.134 1342.5,696C 1346.6,703.285 1344.6,707.952 1336.5,710C 1328.28,712.387 1322.61,709.721 1319.5,702C 1320.57,697.437 1323.23,694.271 1327.5,692.5 Z"/></g>
<g><path style="opacity:1" fill="#77acd1" d="M 1453.5,823.5 C 1453.23,825.099 1453.57,826.432 1454.5,827.5C 1454.01,828.473 1453.51,829.473 1453,830.5C 1452.2,827.961 1452.37,825.628 1453.5,823.5 Z"/></g>
<g><path style="opacity:1" fill="#227cb7" d="M 1252.5,933.5 C 1293.17,933.167 1333.84,933.5 1374.5,934.5C 1374.38,935.107 1374.04,935.44 1373.5,935.5C 1333.17,934.833 1292.83,934.167 1252.5,933.5 Z"/></g>
<g><path style="opacity:1" fill="#5b9ac8" d="M 1289.5,1003.5 C 1293.85,1003.33 1298.18,1003.5 1302.5,1004C 1301.17,1004.33 1299.83,1004.67 1298.5,1005C 1286.33,1005.83 1274.33,1005.66 1262.5,1004.5C 1271.68,1004.83 1280.68,1004.49 1289.5,1003.5 Z"/></g>
<g><path style="opacity:1" fill="#0268ac" d="M 1142.5,1021.5 C 1188.15,1066.81 1233.81,1112.15 1279.5,1157.5C 1324.65,1112.85 1369.65,1068.01 1414.5,1023C 1415.5,1022.33 1416.5,1022.33 1417.5,1023C 1461.67,1067.17 1505.83,1111.33 1550,1155.5C 1550.5,1194.17 1550.67,1232.83 1550.5,1271.5C 1368.5,1271.5 1186.5,1271.5 1004.5,1271.5C 1004.33,1234.17 1004.5,1196.83 1005,1159.5C 1051.03,1113.63 1096.87,1067.63 1142.5,1021.5 Z"/></g>
<g><path style="opacity:1" fill="#d6e7f1" d="M 1084.5,1182.5 C 1066.5,1182.5 1048.5,1182.5 1030.5,1182.5C 1030.5,1205.17 1030.5,1227.83 1030.5,1250.5C 1029.5,1227.67 1029.17,1204.67 1029.5,1181.5C 1048.01,1181.17 1066.34,1181.5 1084.5,1182.5 Z"/></g>
<g><path style="opacity:1" fill="#f9fbfd" d="M 1084.5,1182.5 C 1084.5,1185.83 1084.5,1189.17 1084.5,1192.5C 1069.83,1192.5 1055.17,1192.5 1040.5,1192.5C 1040.5,1198.5 1040.5,1204.5 1040.5,1210.5C 1052.84,1210.33 1065.17,1210.5 1077.5,1211C 1093.88,1218.14 1097.38,1229.3 1088,1244.5C 1085.92,1246.12 1083.75,1247.62 1081.5,1249C 1064.56,1250.44 1047.56,1250.94 1030.5,1250.5C 1030.5,1227.83 1030.5,1205.17 1030.5,1182.5C 1048.5,1182.5 1066.5,1182.5 1084.5,1182.5 Z"/></g>
<g><path style="opacity:1" fill="#fcfdfe" d="M 1166.5,1250.5 C 1166.67,1233.16 1166.5,1215.83 1166,1198.5C 1165.28,1199.04 1164.78,1199.71 1164.5,1200.5C 1150.3,1217.02 1135.97,1233.52 1121.5,1250C 1117.85,1250.5 1114.18,1250.67 1110.5,1250.5C 1110.5,1227.83 1110.5,1205.17 1110.5,1182.5C 1113.83,1182.5 1117.17,1182.5 1120.5,1182.5C 1120.17,1199.67 1120.5,1216.67 1121.5,1233.5C 1136.11,1216.54 1150.78,1199.54 1165.5,1182.5C 1169.11,1181.51 1172.77,1181.18 1176.5,1181.5C 1176.5,1204.5 1176.5,1227.5 1176.5,1250.5C 1173.17,1250.5 1169.83,1250.5 1166.5,1250.5 Z"/></g>
<g><path style="opacity:1" fill="#c8deec" d="M 1110.5,1182.5 C 1113.96,1181.52 1117.63,1181.19 1121.5,1181.5C 1121.5,1198.83 1121.5,1216.17 1121.5,1233.5C 1120.5,1216.67 1120.17,1199.67 1120.5,1182.5C 1117.17,1182.5 1113.83,1182.5 1110.5,1182.5 Z"/></g>
<g><path style="opacity:1" fill="#fafcfd" d="M 1280.5,1182.5 C 1283.83,1182.5 1287.17,1182.5 1290.5,1182.5C 1290.5,1205.17 1290.5,1227.83 1290.5,1250.5C 1260.83,1250.5 1231.17,1250.5 1201.5,1250.5C 1201.5,1227.83 1201.5,1205.17 1201.5,1182.5C 1204.83,1182.5 1208.17,1182.5 1211.5,1182.5C 1211.17,1201.67 1211.5,1220.67 1212.5,1239.5C 1221.83,1239.5 1231.17,1239.5 1240.5,1239.5C 1240.5,1220.17 1240.5,1200.83 1240.5,1181.5C 1244.17,1181.5 1247.83,1181.5 1251.5,1181.5C 1251.5,1200.83 1251.5,1220.17 1251.5,1239.5C 1261.17,1239.5 1270.83,1239.5 1280.5,1239.5C 1280.5,1220.5 1280.5,1201.5 1280.5,1182.5 Z"/></g>
<g><path style="opacity:1" fill="#a1c7e0" d="M 1201.5,1182.5 C 1204.96,1181.52 1208.63,1181.19 1212.5,1181.5C 1212.5,1200.83 1212.5,1220.17 1212.5,1239.5C 1211.5,1220.67 1211.17,1201.67 1211.5,1182.5C 1208.17,1182.5 1204.83,1182.5 1201.5,1182.5 Z"/></g>
<g><path style="opacity:1" fill="#b6d4e7" d="M 1280.5,1182.5 C 1283.96,1181.52 1287.63,1181.19 1291.5,1181.5C 1291.83,1204.67 1291.5,1227.67 1290.5,1250.5C 1290.5,1227.83 1290.5,1205.17 1290.5,1182.5C 1287.17,1182.5 1283.83,1182.5 1280.5,1182.5 Z"/></g>
<g><path style="opacity:1" fill="#fbfcfd" d="M 1313.5,1181.5 C 1316.83,1181.5 1320.17,1181.5 1323.5,1181.5C 1323.5,1191.17 1323.5,1200.83 1323.5,1210.5C 1328.21,1210.83 1332.88,1210.49 1337.5,1209.5C 1345.4,1200.69 1353.07,1191.69 1360.5,1182.5C 1365.17,1181.17 1369.83,1181.17 1374.5,1182.5C 1364.96,1193.53 1355.63,1204.7 1346.5,1216C 1355.63,1227.3 1364.96,1238.47 1374.5,1249.5C 1369.83,1250.83 1365.17,1250.83 1360.5,1249.5C 1352.62,1240.24 1344.62,1231.07 1336.5,1222C 1332.18,1221.5 1327.85,1221.33 1323.5,1221.5C 1323.5,1231.17 1323.5,1240.83 1323.5,1250.5C 1320.17,1250.5 1316.83,1250.5 1313.5,1250.5C 1313.5,1227.5 1313.5,1204.5 1313.5,1181.5 Z"/></g>
<g><path style="opacity:1" fill="#fdfdfe" d="M 1406.5,1192.5 C 1405.51,1198.64 1405.18,1204.98 1405.5,1211.5C 1416.83,1211.5 1428.17,1211.5 1439.5,1211.5C 1439.5,1214.83 1439.5,1218.17 1439.5,1221.5C 1428.5,1221.5 1417.5,1221.5 1406.5,1221.5C 1405.51,1227.64 1405.18,1233.98 1405.5,1240.5C 1416.83,1240.5 1428.17,1240.5 1439.5,1240.5C 1439.5,1243.83 1439.5,1247.17 1439.5,1250.5C 1424.83,1250.5 1410.17,1250.5 1395.5,1250.5C 1395.5,1227.5 1395.5,1204.5 1395.5,1181.5C 1410.17,1181.5 1424.83,1181.5 1439.5,1181.5C 1439.5,1185.17 1439.5,1188.83 1439.5,1192.5C 1428.5,1192.5 1417.5,1192.5 1406.5,1192.5 Z"/></g>
<g><path style="opacity:1" fill="#cfe2ef" d="M 1467.5,1210.5 C 1466.51,1201.35 1466.17,1192.01 1466.5,1182.5C 1463.5,1182.5 1460.5,1182.5 1457.5,1182.5C 1457.5,1205.17 1457.5,1227.83 1457.5,1250.5C 1456.5,1227.67 1456.17,1204.67 1456.5,1181.5C 1460.17,1181.5 1463.83,1181.5 1467.5,1181.5C 1467.5,1191.17 1467.5,1200.83 1467.5,1210.5 Z"/></g>
<g><path style="opacity:1" fill="#fafcfd" d="M 1457.5,1250.5 C 1457.5,1227.83 1457.5,1205.17 1457.5,1182.5C 1460.5,1182.5 1463.5,1182.5 1466.5,1182.5C 1466.17,1192.01 1466.51,1201.35 1467.5,1210.5C 1471.85,1210.67 1476.18,1210.5 1480.5,1210C 1488.5,1200.67 1496.5,1191.33 1504.5,1182C 1509.17,1181.33 1513.83,1181.33 1518.5,1182C 1508.6,1193.15 1498.93,1204.48 1489.5,1216C 1498.93,1227.52 1508.6,1238.85 1518.5,1250C 1513.83,1250.67 1509.17,1250.67 1504.5,1250C 1496.5,1240.67 1488.5,1231.33 1480.5,1222C 1476.18,1221.5 1471.85,1221.33 1467.5,1221.5C 1467.5,1231.17 1467.5,1240.83 1467.5,1250.5C 1464.17,1250.5 1460.83,1250.5 1457.5,1250.5 Z"/></g>
<g><path style="opacity:1" fill="#4a93c3" d="M 1166.5,1250.5 C 1165.83,1233.83 1165.17,1217.17 1164.5,1200.5C 1164.78,1199.71 1165.28,1199.04 1166,1198.5C 1166.5,1215.83 1166.67,1233.16 1166.5,1250.5 Z"/></g>
<g><path style="opacity:1" fill="#82b5d6" d="M 1406.5,1192.5 C 1406.5,1198.5 1406.5,1204.5 1406.5,1210.5C 1417.68,1210.17 1428.68,1210.51 1439.5,1211.5C 1428.17,1211.5 1416.83,1211.5 1405.5,1211.5C 1405.18,1204.98 1405.51,1198.64 1406.5,1192.5 Z"/></g>
<g><path style="opacity:1" fill="#0368ac" d="M 1040.5,1221.5 C 1052.17,1221.33 1063.84,1221.5 1075.5,1222C 1082.39,1224.81 1084.23,1229.64 1081,1236.5C 1080.1,1237.7 1078.93,1238.53 1077.5,1239C 1065.17,1239.5 1052.84,1239.67 1040.5,1239.5C 1040.5,1233.5 1040.5,1227.5 1040.5,1221.5 Z"/></g>
<g><path style="opacity:1" fill="#a9cbe2" d="M 1406.5,1221.5 C 1406.5,1227.5 1406.5,1233.5 1406.5,1239.5C 1417.68,1239.17 1428.68,1239.51 1439.5,1240.5C 1428.17,1240.5 1416.83,1240.5 1405.5,1240.5C 1405.18,1233.98 1405.51,1227.64 1406.5,1221.5 Z"/></g>
<g><path style="opacity:1" fill="#62a1cb" d="M 1550.5,1281.5 C 1368.83,1281.5 1187.17,1281.5 1005.5,1281.5C 1005.5,1298.83 1005.5,1316.17 1005.5,1333.5C 1187.17,1333.5 1368.83,1333.5 1550.5,1333.5C 1368.67,1334.5 1186.67,1334.83 1004.5,1334.5C 1004.5,1316.5 1004.5,1298.5 1004.5,1280.5C 1186.67,1280.17 1368.67,1280.5 1550.5,1281.5 Z"/></g>
<g><path style="opacity:1" fill="#0067ac" d="M 1550.5,1281.5 C 1550.5,1298.83 1550.5,1316.17 1550.5,1333.5C 1368.83,1333.5 1187.17,1333.5 1005.5,1333.5C 1005.5,1316.17 1005.5,1298.83 1005.5,1281.5C 1187.17,1281.5 1368.83,1281.5 1550.5,1281.5 Z"/></g>
</svg>
